<?xml version="1.0" standalone="no"?>
<!DOCTYPE svg PUBLIC "-//W3C//DTD SVG 20010904//EN"
 "http://www.w3.org/TR/2001/REC-SVG-20010904/DTD/svg10.dtd">
<svg version="1.0" xmlns="http://www.w3.org/2000/svg"
 width="256.000000pt" height="256.000000pt" viewBox="0 0 256.000000 256.000000"
 preserveAspectRatio="xMidYMid meet">

<g transform="translate(0.000000,256.000000) scale(0.100000,-0.100000)"
fill="#000000" stroke="none">
<path d="M1 2063 c1 -452 2 -492 15 -433 22 106 86 222 169 309 85 88 168 141
280 178 129 42 300 36 430 -13 13 -5 15 5 15 60 l0 66 40 0 40 0 0 -85 0 -84
38 -26 37 -25 3 150 3 150 44 0 45 0 0 -195 0 -194 40 -57 40 -57 0 376 0 377
-620 0 -620 0 1 -497z m1154 372 l0 -40 -40 0 c-36 0 -40 2 -43 28 -6 47 4 59
45 55 37 -3 38 -4 38 -43z"/>
<path d="M1320 2183 l0 -376 40 57 40 57 0 194 0 195 45 0 44 0 3 -150 3 -150
38 25 37 26 0 84 0 85 40 0 40 0 0 -66 c0 -55 2 -65 15 -60 130 49 301 55 430
13 112 -37 195 -90 280 -178 83 -87 147 -203 169 -309 13 -59 14 -19 15 433
l1 497 -620 0 -620 0 0 -377z m165 252 l0 -40 -40 0 c-36 0 -40 2 -43 28 -6
47 4 59 45 55 37 -3 38 -4 38 -43z"/>
<path d="M513 2045 c-129 -35 -255 -125 -326 -233 -48 -71 -97 -199 -97 -251
l0 -31 88 0 87 0 81 162 81 162 59 -240 60 -239 75 187 c41 103 76 188 79 188
3 0 33 -63 65 -140 32 -77 62 -140 65 -140 4 0 17 23 30 50 l23 50 175 0 174
0 -7 37 c-12 64 -52 151 -100 219 -76 106 -192 185 -321 219 -72 19 -221 18
-291 0z"/>
<path d="M1755 2045 c-284 -78 -468 -351 -429 -638 l6 -45 67 -12 c129 -22
279 -104 365 -200 52 -57 114 -156 128 -202 10 -34 15 -38 43 -38 50 0 182 37
238 67 74 39 198 165 235 239 50 99 66 168 65 279 0 81 -5 114 -26 175 -65
183 -219 327 -404 375 -70 18 -221 18 -288 0z m285 -326 c78 -116 144 -217
147 -225 5 -14 -272 -444 -287 -444 -4 0 -72 98 -153 219 l-145 218 146 221
c81 122 148 222 149 222 2 0 66 -95 143 -211z"/>
<path d="M1791 1621 c-33 -49 -62 -95 -63 -101 -2 -7 26 -22 65 -36 l67 -23 0
125 c0 68 -2 124 -5 124 -2 0 -31 -40 -64 -89z"/>
<path d="M1940 1586 l0 -125 68 23 c38 14 66 29 64 36 -3 14 -121 190 -127
190 -3 0 -5 -56 -5 -124z"/>
<path d="M1760 1404 c0 -2 21 -36 48 -76 l47 -71 3 48 c2 26 1 53 -2 60 -4 12
-96 49 -96 39z"/>
<path d="M1988 1392 l-48 -16 0 -58 c0 -32 2 -58 4 -58 5 0 98 142 94 144 -2
2 -24 -4 -50 -12z"/>
<path d="M355 1530 l-39 -80 -113 0 -113 0 0 -34 c0 -19 9 -62 20 -97 40 -132
140 -257 260 -330 66 -39 195 -79 255 -79 28 0 33 4 44 40 18 61 105 183 174
245 78 69 199 130 302 152 44 9 81 17 82 17 1 1 5 29 9 64 l7 62 -155 0 -154
0 -54 -110 c-30 -60 -57 -106 -61 -102 -3 4 -30 63 -59 132 -29 69 -54 126
-55 128 -1 2 -40 -92 -86 -207 -46 -116 -86 -211 -89 -211 -3 0 -32 107 -64
238 -32 130 -62 240 -65 244 -4 5 -25 -28 -46 -72z"/>
<path d="M1 708 l-1 -708 225 0 225 0 0 40 0 40 45 0 45 0 0 -40 0 -40 740 0
740 0 0 40 0 40 45 0 45 0 0 -40 0 -40 225 0 225 0 -1 708 c-1 431 -5 690 -10
663 -15 -75 -48 -166 -79 -215 l-30 -47 0 -284 0 -285 -45 0 -45 0 0 231 0
231 -40 -32 -40 -32 0 -284 0 -284 -40 0 -40 0 0 260 c0 143 -2 260 -4 260 -2
0 -20 -7 -40 -15 l-36 -15 0 -345 0 -345 -45 0 -45 0 0 336 c0 302 -2 336 -16
330 -9 -3 -28 -6 -44 -6 l-28 0 5 -92 c18 -327 -207 -618 -529 -682 -97 -20
-159 -20 -256 0 -321 64 -547 355 -529 682 l5 92 -28 0 c-16 0 -35 3 -44 6
-14 6 -16 -28 -16 -330 l0 -336 -45 0 -45 0 0 345 0 345 -36 15 c-20 8 -38 15
-40 15 -2 0 -4 -117 -4 -260 l0 -260 -40 0 -40 0 0 284 0 284 -40 32 -40 32 0
-231 0 -231 -45 0 -45 0 0 285 0 284 -30 47 c-31 49 -64 140 -79 215 -5 27 -9
-232 -10 -663z m209 -298 l0 -40 -45 0 -45 0 0 40 0 40 45 0 45 0 0 -40z
m2230 0 l0 -40 -45 0 -45 0 0 40 0 40 45 0 45 0 0 -40z m-2070 -160 l0 -40
-40 0 -40 0 0 40 0 40 40 0 40 0 0 -40z m1900 0 l0 -40 -40 0 -40 0 0 40 0 40
40 0 40 0 0 -40z"/>
<path d="M1154 1265 c-159 -34 -320 -161 -389 -306 -61 -130 -77 -245 -50
-374 45 -216 221 -396 435 -446 70 -16 190 -16 260 0 213 50 390 232 435 446
19 88 18 142 0 230 -47 223 -226 404 -444 451 -81 17 -166 17 -247 -1z m212
-76 c131 -23 262 -112 334 -225 67 -106 91 -277 56 -396 -17 -57 -76 -170 -92
-175 -5 -2 -22 7 -37 20 l-28 22 34 58 c46 75 61 140 55 238 -9 148 -97 278
-236 346 -53 26 -66 28 -172 28 -121 -1 -153 -9 -237 -65 l-31 -21 -23 32 -22
32 24 20 c62 50 190 94 280 96 19 1 62 -4 95 -10z m-46 -157 c0 -36 2 -38 43
-49 53 -15 104 -64 117 -115 13 -45 -3 -119 -31 -144 -18 -16 -18 -17 2 -46
68 -95 30 -216 -82 -255 -47 -17 -49 -19 -49 -55 0 -38 0 -38 -40 -38 -40 0
-40 0 -40 40 l0 39 -62 3 -63 3 -3 288 -2 287 65 0 65 0 0 40 0 40 40 0 c40 0
40 0 40 -38z m-384 -42 l21 -21 -40 -79 c-36 -70 -41 -90 -45 -163 -5 -104 13
-172 67 -254 74 -110 209 -183 341 -183 70 0 171 30 223 66 l39 26 24 -23 c13
-12 24 -28 24 -36 0 -18 -93 -69 -169 -93 -260 -82 -548 81 -621 350 -30 113
-4 282 59 383 34 52 45 56 77 27z"/>
<path d="M1200 826 l0 -86 65 0 c69 0 118 17 129 45 12 31 6 73 -13 96 -17 21
-30 24 -100 27 l-81 4 0 -86z"/>
<path d="M1200 580 l0 -80 78 0 c69 0 81 3 100 23 30 32 29 81 -3 112 -21 22
-33 25 -100 25 l-75 0 0 -80z"/>
</g>
</svg>
